<svg width="51" height="55" viewBox="0 0 51 55" fill="none" xmlns="http://www.w3.org/2000/svg">
<path d="M26.0583 49.3238L40.1545 40.3907L32.8932 39.6145L26.0583 49.3238Z" fill="#0E8B0C"/>
<path d="M47.8443 8.15576L50.4076 12.2338L46.1358 11.4567L47.8443 8.15576Z" fill="#FBFBFB"/>
<path d="M32.8931 39.6151L42.7175 40.9742L48.4849 27.3811L32.8931 39.6151Z" fill="#036301"/>
<path d="M27.3395 34.9541L7.90314 49.13H17.0866L27.3395 34.9541Z" fill="#036301"/>
<path d="M39.3009 5.43652L47.8443 8.15549L43.7863 17.6706L39.3009 5.43652Z" fill="#0E8B0C"/>
<path d="M27.3394 34.9543L11.7475 54.3738L24.1351 51.4606L48.485 27.3811L27.3394 34.9543Z" fill="#ACE2AC"/>
<path d="M19.8636 4.27228L0 0L6.40753 16.8949L18.1551 22.9147L19.8636 4.27228Z" fill="#ACE2AC"/>
<path d="M31.1838 15.923L39.3007 5.43652L48.4851 27.3808L31.1838 15.923Z" fill="#ACE2AC"/>
<path d="M25.2036 1.74634L33.7469 15.9222C29.3017 14.5398 24.8554 13.1573 20.4101 11.7748C22.0079 8.43229 23.6058 5.08888 25.2036 1.74634Z" fill="#036301"/>
<path d="M19.8635 4.27173L18.155 22.9142L27.3394 34.9539L48.485 27.3807L19.8635 4.27173Z" fill="#0E8B0C"/>
</svg>
